<?xml version="1.0" encoding="UTF-8"?><svg id="Layer_2" xmlns="http://www.w3.org/2000/svg" viewBox="0 0 174.03 70.19"><defs><style>.cls-1{fill:#26547c;}</style></defs><g id="Layer_1-2"><path class="cls-1" d="M2.56,45.03v1.6h1.86v.52h-1.86v1.65h2.08v.52H1.89v-4.8h2.75v.52h-2.08Z"/><path class="cls-1" d="M11.29,45.66c.24.12.44.3.58.55.14.24.21.54.21.89v2.22h-.66v-2.13c0-.38-.1-.66-.3-.86-.2-.2-.46-.3-.8-.3s-.62.1-.83.31c-.21.21-.31.51-.31.9v2.08h-.66v-2.13c0-.38-.1-.66-.3-.86-.2-.2-.47-.3-.8-.3s-.62.1-.83.31c-.21.21-.31.51-.31.9v2.08h-.67v-3.77h.67v.54c.13-.2.31-.35.53-.45s.47-.16.74-.16c.34,0,.63.07.89.21.26.14.45.35.58.63.11-.27.3-.47.56-.62.26-.15.55-.22.86-.22s.59.06.83.18Z"/><path class="cls-1" d="M14.55,45.7c.26-.14.57-.22.91-.22s.68.08.97.24.52.39.68.68c.17.29.25.63.25,1.01s-.08.72-.25,1.02-.39.53-.68.69c-.29.16-.61.25-.97.25s-.64-.07-.9-.22c-.26-.14-.46-.32-.6-.54v2.48h-.67v-5.56h.67v.69c.13-.22.33-.4.59-.54ZM16.5,46.68c-.12-.21-.29-.37-.49-.48-.21-.11-.44-.17-.68-.17s-.47.06-.68.17c-.21.11-.37.28-.5.49-.12.21-.19.46-.19.74s.06.53.19.75c.12.21.29.38.5.49.21.11.43.17.68.17s.48-.06.68-.17c.21-.11.37-.28.49-.49.12-.21.18-.46.18-.75s-.06-.53-.18-.74Z"/><path class="cls-1" d="M19.11,49.14c-.31-.16-.54-.39-.72-.68-.17-.3-.26-.64-.26-1.03s.09-.73.27-1.02c.18-.3.42-.52.73-.68.31-.16.65-.24,1.03-.24s.73.08,1.03.24c.31.16.55.38.73.68.18.29.27.64.27,1.02s-.09.73-.27,1.03c-.18.3-.43.52-.74.68-.31.16-.66.24-1.04.24s-.72-.08-1.02-.24ZM20.81,48.67c.21-.11.38-.26.51-.47.13-.21.19-.47.19-.77s-.06-.56-.19-.77-.29-.37-.5-.47-.43-.15-.67-.15-.47.05-.67.15c-.2.1-.37.26-.49.47-.12.21-.18.47-.18.77s.06.57.18.78.28.37.48.47c.2.1.42.15.66.15s.46-.05.67-.16Z"/><path class="cls-1" d="M28.46,45.55l-1.25,3.77h-.69l-.97-2.99-.97,2.99h-.69l-1.26-3.77h.68l.92,3.16,1-3.16h.68l.97,3.17.91-3.17h.66Z"/><path class="cls-1" d="M32.81,47.67h-3.21c.02.37.16.66.41.87.25.21.55.31.9.31.29,0,.53-.06.72-.19s.33-.29.41-.51h.72c-.11.36-.32.66-.64.88-.32.23-.72.34-1.2.34-.38,0-.72-.08-1.02-.24s-.54-.39-.71-.68c-.17-.3-.26-.64-.26-1.03s.08-.73.25-1.02c.17-.29.4-.52.7-.68s.65-.24,1.04-.24.72.08,1.01.23c.29.16.52.37.68.64.16.27.24.58.24.92,0,.12,0,.25-.02.38ZM31.98,46.54c-.11-.17-.26-.3-.46-.39-.19-.09-.41-.13-.64-.13-.34,0-.62.1-.86.3-.24.2-.37.48-.41.84h2.53c0-.24-.06-.44-.17-.62Z"/><path class="cls-1" d="M35,45.66c.22-.12.48-.18.79-.18v.65h-.18c-.75,0-1.12.38-1.12,1.14v2.05h-.67v-3.77h.67v.61c.12-.22.28-.38.5-.5Z"/><path class="cls-1" d="M36.67,44.81c-.09-.08-.13-.18-.13-.3s.04-.22.13-.3.2-.12.32-.12.23.04.31.12c.08.08.13.18.13.3s-.04.22-.13.3c-.09.08-.19.12-.31.12s-.23-.04-.32-.12ZM37.32,45.55v3.77h-.67v-3.77h.67Z"/><path class="cls-1" d="M41.7,45.9c.3.28.45.68.45,1.2v2.22h-.66v-2.13c0-.38-.1-.66-.3-.86-.2-.2-.47-.3-.82-.3s-.63.1-.84.31c-.21.21-.31.51-.31.9v2.08h-.67v-3.77h.67v.54c.13-.19.31-.34.54-.45s.48-.16.75-.16c.49,0,.88.14,1.19.42Z"/><path class="cls-1" d="M45.93,45.7c.26.14.46.32.58.54v-.69h.67v3.85c0,.34-.08.65-.23.92-.16.27-.38.48-.67.63-.29.15-.63.23-1.01.23-.53,0-.97-.12-1.32-.35-.35-.23-.56-.55-.62-.96h.66c.07.23.22.41.45.55s.51.21.83.21c.37,0,.66-.11.9-.32.23-.22.35-.52.35-.91v-.79c-.13.22-.33.4-.59.55-.26.15-.56.22-.91.22s-.68-.08-.97-.25c-.29-.17-.52-.4-.68-.69s-.25-.64-.25-1.02.08-.72.25-1.01c.17-.29.39-.52.68-.68.29-.16.61-.24.97-.24s.65.07.91.21ZM46.33,46.68c-.12-.21-.29-.37-.49-.48-.21-.11-.44-.17-.68-.17s-.48.06-.68.17-.37.27-.49.48c-.12.21-.18.46-.18.74s.06.54.18.75c.12.21.29.38.49.49.21.11.43.17.68.17s.48-.06.68-.17c.21-.11.37-.28.49-.49s.18-.46.18-.75-.06-.53-.18-.74Z"/><path class="cls-1" d="M51.04,49.2c-.27-.11-.48-.27-.63-.47s-.23-.43-.23-.69h.71c.03.22.12.41.3.57.17.15.43.23.76.23s.57-.07.75-.22.27-.34.27-.57c0-.18-.05-.33-.16-.45-.11-.11-.24-.2-.4-.26-.16-.06-.38-.12-.65-.19-.34-.08-.61-.16-.81-.25-.2-.08-.38-.21-.52-.39-.14-.18-.22-.41-.22-.71,0-.26.07-.49.21-.69s.34-.36.6-.47c.26-.11.55-.16.88-.16.48,0,.87.11,1.18.34.31.22.48.52.52.89h-.73c-.02-.18-.13-.34-.31-.48-.18-.14-.42-.21-.72-.21-.28,0-.51.07-.68.2s-.26.32-.26.57c0,.17.05.32.16.43s.23.19.39.25c.15.06.37.12.65.2.34.09.61.17.81.26s.38.22.53.39c.15.18.22.42.22.72,0,.23-.07.45-.2.66-.13.21-.33.37-.59.5-.26.13-.56.19-.91.19s-.64-.06-.9-.17Z"/><path class="cls-1" d="M55.57,46.06v2.22c0,.18.04.31.12.39.08.08.23.11.43.11h.49v.53h-.6c-.37,0-.65-.08-.83-.24-.19-.16-.28-.42-.28-.79v-2.22h-.52v-.52h.52v-.95h.67v.95h1.05v.52h-1.05Z"/><path class="cls-1" d="M58.65,45.66c.22-.12.48-.18.79-.18v.65h-.18c-.75,0-1.12.38-1.12,1.14v2.05h-.67v-3.77h.67v.61c.12-.22.28-.38.5-.5Z"/><path class="cls-1" d="M60.24,46.4c.17-.29.39-.52.68-.68.29-.16.61-.24.97-.24s.66.07.92.21c.26.14.45.32.58.54v-.69h.67v3.77h-.67v-.7c-.13.22-.33.4-.59.55-.26.14-.57.22-.91.22s-.68-.08-.97-.25c-.29-.17-.51-.4-.68-.69s-.25-.64-.25-1.02.08-.72.25-1.01ZM63.2,46.68c-.12-.21-.29-.37-.49-.48-.21-.11-.44-.17-.68-.17s-.48.06-.68.17-.37.27-.49.48c-.12.21-.18.46-.18.74s.06.54.18.75c.12.21.29.38.49.49.21.11.43.17.68.17s.48-.06.68-.17c.21-.11.37-.28.49-.49s.18-.46.18-.75-.06-.53-.18-.74Z"/><path class="cls-1" d="M66.11,46.06v2.22c0,.18.04.31.12.39.08.08.23.11.43.11h.49v.53h-.6c-.37,0-.65-.08-.83-.24-.19-.16-.28-.42-.28-.79v-2.22h-.52v-.52h.52v-.95h.67v.95h1.05v.52h-1.05Z"/><path class="cls-1" d="M71.58,47.67h-3.21c.02.37.16.66.41.87.25.21.55.31.9.31.29,0,.53-.06.72-.19s.33-.29.41-.51h.72c-.11.36-.32.66-.64.88-.32.23-.72.34-1.2.34-.38,0-.72-.08-1.02-.24s-.54-.39-.71-.68c-.17-.3-.26-.64-.26-1.03s.08-.73.25-1.02c.17-.29.4-.52.7-.68s.65-.24,1.04-.24.72.08,1.01.23c.29.16.52.37.68.64.16.27.24.58.24.92,0,.12,0,.25-.02.38ZM70.75,46.54c-.11-.17-.26-.3-.46-.39-.19-.09-.41-.13-.64-.13-.34,0-.62.1-.86.3-.24.2-.37.48-.41.84h2.53c0-.24-.06-.44-.17-.62Z"/><path class="cls-1" d="M75.2,45.7c.26.14.46.32.58.54v-.69h.67v3.85c0,.34-.08.65-.23.92-.16.27-.38.48-.67.63-.29.15-.63.23-1.01.23-.53,0-.97-.12-1.32-.35-.35-.23-.56-.55-.62-.96h.66c.07.23.22.41.45.55s.51.21.83.21c.37,0,.66-.11.9-.32.23-.22.35-.52.35-.91v-.79c-.13.22-.33.4-.59.55-.26.15-.56.22-.91.22s-.68-.08-.97-.25c-.29-.17-.52-.4-.68-.69s-.25-.64-.25-1.02.08-.72.25-1.01c.17-.29.39-.52.68-.68.29-.16.61-.24.97-.24s.65.07.91.21ZM75.59,46.68c-.12-.21-.29-.37-.49-.48-.21-.11-.44-.17-.68-.17s-.48.06-.68.17-.37.27-.49.48c-.12.21-.18.46-.18.74s.06.54.18.75c.12.21.29.38.49.49.21.11.43.17.68.17s.48-.06.68-.17c.21-.11.37-.28.49-.49s.18-.46.18-.75-.06-.53-.18-.74Z"/><path class="cls-1" d="M77.71,44.81c-.09-.08-.13-.18-.13-.3s.04-.22.13-.3.2-.12.32-.12.23.04.31.12c.08.08.13.18.13.3s-.04.22-.13.3c-.09.08-.19.12-.31.12s-.23-.04-.32-.12ZM78.36,45.55v3.77h-.67v-3.77h.67Z"/><path class="cls-1" d="M79.61,46.4c.17-.29.4-.52.69-.68s.63-.24,1.01-.24c.49,0,.9.11,1.22.34.32.22.53.54.63.94h-.72c-.07-.23-.2-.41-.4-.54-.2-.13-.44-.2-.74-.2-.38,0-.69.12-.92.37-.23.25-.35.59-.35,1.04s.12.8.35,1.05c.23.25.54.37.92.37.29,0,.54-.06.73-.19.2-.13.33-.31.4-.55h.72c-.11.39-.32.69-.64.92-.32.23-.73.35-1.21.35-.38,0-.72-.08-1.01-.24s-.53-.39-.69-.68c-.17-.29-.25-.64-.25-1.03s.08-.73.25-1.02Z"/><path class="cls-1" d="M89.93,45.91c-.14-.28-.35-.5-.62-.65-.27-.15-.58-.23-.94-.23s-.68.08-.96.23c-.29.15-.51.37-.67.66-.16.29-.24.62-.24.99s.08.71.24.99c.16.28.39.5.67.66.29.15.61.23.96.23.5,0,.91-.14,1.23-.42s.51-.66.56-1.13h-2.04v-.51h2.75v.48c-.04.39-.17.76-.4,1.08-.22.33-.52.59-.89.78-.37.19-.77.29-1.22.29-.47,0-.91-.1-1.3-.31-.39-.21-.7-.5-.93-.87-.23-.37-.34-.79-.34-1.26s.11-.89.34-1.26c.23-.37.54-.66.93-.87.39-.21.82-.31,1.3-.31.54,0,1.02.13,1.44.38.42.25.72.61.91,1.07h-.8Z"/><path class="cls-1" d="M93.08,45.66c.22-.12.48-.18.79-.18v.65h-.18c-.75,0-1.12.38-1.12,1.14v2.05h-.67v-3.77h.67v.61c.12-.22.28-.38.5-.5Z"/><path class="cls-1" d="M95.38,49.14c-.31-.16-.54-.39-.72-.68-.17-.3-.26-.64-.26-1.03s.09-.73.27-1.02c.18-.3.42-.52.73-.68.31-.16.65-.24,1.03-.24s.73.08,1.03.24c.31.16.55.38.73.68.18.29.27.64.27,1.02s-.09.73-.27,1.03c-.18.3-.43.52-.74.68-.31.16-.66.24-1.04.24s-.72-.08-1.02-.24ZM97.08,48.67c.21-.11.38-.26.51-.47.13-.21.19-.47.19-.77s-.06-.56-.19-.77-.29-.37-.5-.47-.43-.15-.67-.15-.47.05-.67.15c-.2.1-.37.26-.49.47-.12.21-.18.47-.18.77s.06.57.18.78.28.37.48.47c.2.1.42.15.66.15s.46-.05.67-.16Z"/><path class="cls-1" d="M104.74,45.55l-1.25,3.77h-.69l-.97-2.99-.97,2.99h-.69l-1.26-3.77h.68l.92,3.16,1-3.16h.68l.97,3.17.91-3.17h.66Z"/><path class="cls-1" d="M106.52,46.06v2.22c0,.18.04.31.12.39.08.08.23.11.43.11h.49v.53h-.6c-.37,0-.65-.08-.83-.24-.19-.16-.28-.42-.28-.79v-2.22h-.52v-.52h.52v-.95h.67v.95h1.05v.52h-1.05Z"/><path class="cls-1" d="M111.25,45.66c.24.12.44.3.57.55.14.24.21.54.21.89v2.22h-.66v-2.13c0-.38-.1-.66-.3-.86-.2-.2-.47-.3-.82-.3s-.63.1-.84.31c-.21.21-.31.51-.31.9v2.08h-.67v-5.09h.67v1.86c.13-.19.31-.34.55-.45s.49-.16.78-.16.58.06.82.18Z"/><path class="cls-1" d="M172.32,34.84H1.71c-.94,0-1.71.76-1.71,1.71s.76,1.71,1.71,1.71h122.03c-2.93,2.55-4.79,6.31-4.79,10.49,0,11.82,9.62,21.44,21.44,21.44,18.55,0,33.64-15.09,33.64-33.64,0-.94-.76-1.71-1.71-1.71ZM140.39,66.78c-9.94,0-18.03-8.09-18.03-18.03,0-5.78,4.71-10.49,10.49-10.49,3.22,0,5.83,2.62,5.83,5.83,0,1.63-1.32,2.95-2.95,2.95-.65,0-1.17-.53-1.17-1.17,0-.94-.76-1.71-1.71-1.71s-1.71.76-1.71,1.71c0,2.53,2.06,4.59,4.59,4.59,3.51,0,6.36-2.86,6.36-6.36,0-2.21-.78-4.24-2.08-5.83h30.55c-.89,15.88-14.09,28.52-30.18,28.52Z"/><path class="cls-1" d="M16.51,22.9c.33.34.49.74.49,1.2,0,.48-.16.88-.49,1.18s-.74.45-1.25.45H2.65c-.48,0-.89-.17-1.23-.51-.34-.34-.51-.75-.51-1.23V2.1c0-.48.17-.89.51-1.23s.75-.51,1.23-.51h12.61c.51,0,.92.16,1.25.47.33.31.49.72.49,1.23s-.16.88-.49,1.18-.74.45-1.25.45H4.5v7.39h9.13c.51,0,.92.16,1.25.47.33.31.49.71.49,1.2,0,.51-.16.91-.49,1.2-.33.29-.74.43-1.25.43H4.5v8.01h10.76c.51,0,.92.17,1.25.51Z"/><path class="cls-1" d="M35.51,24.06c0,.48-.18.9-.54,1.25-.36.35-.76.53-1.2.53-.56,0-1.03-.25-1.41-.76l-4.85-6.12-4.78,6.12c-.17.24-.37.42-.62.54-.24.12-.5.18-.76.18-.41,0-.79-.15-1.14-.45-.35-.3-.53-.66-.53-1.07,0-.44.13-.8.4-1.09l5.43-6.77-5.58-7.03c-.24-.31-.36-.65-.36-1.01,0-.48.18-.89.53-1.23.35-.34.75-.51,1.21-.51.58,0,1.05.24,1.41.72l4.96,6.27,4.67-6.23c.36-.51.82-.76,1.38-.76.46,0,.84.15,1.16.45.31.3.47.66.47,1.07,0,.46-.13.83-.4,1.12l-5.36,6.77,5.51,6.99c.27.29.4.63.4,1.01Z"/><path class="cls-1" d="M54.56,16.61c-.34.3-.74.45-1.2.45h-12.75c.17,1.76.84,3.18,2.01,4.24,1.17,1.06,2.6,1.59,4.29,1.59,1.16,0,2.1-.17,2.83-.51.72-.34,1.36-.77,1.92-1.3.36-.22.71-.33,1.05-.33.41,0,.75.15,1.03.43.28.29.42.63.42,1.01,0,.51-.24.97-.72,1.38-.7.7-1.63,1.29-2.79,1.77-1.16.48-2.34.72-3.55.72-1.96,0-3.68-.41-5.16-1.23-1.49-.82-2.63-1.97-3.44-3.44-.81-1.47-1.21-3.14-1.21-5,0-2.03.42-3.81,1.25-5.34.83-1.53,1.93-2.71,3.3-3.53,1.36-.82,2.83-1.23,4.4-1.23s2.99.4,4.35,1.2c1.35.8,2.44,1.9,3.26,3.3.82,1.4,1.24,2.97,1.27,4.71-.02.43-.21.8-.54,1.11ZM42.72,10.63c-.99.76-1.64,1.94-1.96,3.53h10.69v-.29c-.12-1.28-.69-2.33-1.72-3.15-1.03-.82-2.19-1.23-3.5-1.23s-2.52.38-3.51,1.14Z"/><path class="cls-1" d="M72.06,7.21c1.27.6,1.9,1.38,1.9,2.32,0,.41-.13.78-.4,1.1-.27.33-.6.49-1.01.49-.31,0-.56-.05-.74-.14-.18-.1-.43-.25-.74-.47-.15-.14-.37-.31-.69-.51-.29-.14-.7-.27-1.23-.36-.53-.1-1.01-.14-1.45-.14-1.26,0-2.37.29-3.33.87-.97.58-1.72,1.38-2.25,2.41-.53,1.03-.8,2.17-.8,3.42s.26,2.43.78,3.44c.52,1.01,1.25,1.81,2.19,2.39.94.58,2.02.87,3.22.87s2.27-.19,3.04-.58c.17-.1.4-.25.69-.47.24-.19.45-.34.63-.43.18-.1.4-.15.67-.15.48,0,.86.15,1.14.45.28.3.42.69.42,1.18,0,.51-.32,1.01-.96,1.5-.64.5-1.5.9-2.57,1.21-1.07.31-2.23.47-3.46.47-1.84,0-3.45-.43-4.85-1.29-1.4-.86-2.48-2.04-3.24-3.55-.76-1.51-1.14-3.19-1.14-5.05s.4-3.54,1.2-5.05c.8-1.51,1.91-2.69,3.33-3.55,1.42-.86,3.05-1.29,4.89-1.29s3.5.3,4.76.91Z"/><path class="cls-1" d="M92.51,7.25c.33.34.49.75.49,1.23v9.64c0,2.51-.69,4.46-2.08,5.85-1.39,1.39-3.35,2.08-5.89,2.08s-4.46-.69-5.83-2.08c-1.38-1.39-2.07-3.34-2.07-5.85v-9.64c0-.48.16-.89.49-1.23.33-.34.73-.51,1.21-.51.51,0,.92.17,1.25.51.33.34.49.75.49,1.23v9.64c0,3.16,1.49,4.75,4.46,4.75,1.47,0,2.6-.4,3.37-1.2.77-.8,1.16-1.98,1.16-3.55v-9.64c0-.48.16-.89.49-1.23.33-.34.73-.51,1.21-.51.51,0,.92.17,1.25.51Z"/><path class="cls-1" d="M103.06,10.11v10.8c0,1.21.54,1.81,1.63,1.81.17,0,.4-.04.69-.13.29-.08.52-.13.69-.13.31,0,.58.13.8.4.22.27.33.6.33,1.01,0,.51-.29.94-.87,1.3s-1.23.54-1.96.54c-.8,0-1.53-.08-2.19-.25-.66-.17-1.26-.6-1.77-1.29-.52-.69-.78-1.73-.78-3.13v-10.94h-2.1c-.46,0-.84-.15-1.14-.45-.3-.3-.45-.68-.45-1.14s.15-.83.45-1.12c.3-.29.68-.43,1.14-.43h2.1v-3.04c0-.48.16-.89.49-1.23.33-.34.74-.51,1.25-.51s.89.17,1.21.51c.33.34.49.75.49,1.23v3.04h3.01c.46,0,.84.15,1.14.45.3.3.45.68.45,1.14s-.15.83-.45,1.12c-.3.29-.68.43-1.14.43h-3.01Z"/><path class="cls-1" d="M126.86,22.9c.33.34.49.74.49,1.2,0,.48-.16.88-.49,1.18s-.74.45-1.25.45h-12.61c-.48,0-.89-.17-1.23-.51-.34-.34-.51-.75-.51-1.23V2.1c0-.48.17-.89.51-1.23s.75-.51,1.23-.51h12.61c.51,0,.92.16,1.25.47.33.31.49.72.49,1.23s-.16.88-.49,1.18-.74.45-1.25.45h-10.76v7.39h9.13c.51,0,.92.16,1.25.47.33.31.49.71.49,1.2,0,.51-.16.91-.49,1.2-.33.29-.74.43-1.25.43h-9.13v8.01h10.76c.51,0,.92.17,1.25.51Z"/><path class="cls-1" d="M134.63,25.34c-1.35-.49-2.64-1.3-3.88-2.41-.51-.43-.76-.93-.76-1.49,0-.43.17-.83.51-1.18.34-.35.74-.53,1.2-.53.41,0,.76.13,1.05.4.97.89,1.96,1.55,2.99,1.97,1.03.42,2.19.63,3.5.63,1.52,0,2.81-.35,3.86-1.05,1.05-.7,1.58-1.58,1.58-2.64-.02-1.26-.55-2.23-1.58-2.92-1.03-.69-2.59-1.26-4.69-1.72-2.49-.51-4.4-1.34-5.74-2.5s-2.01-2.77-2.01-4.82c0-1.42.37-2.67,1.12-3.75.75-1.07,1.79-1.9,3.12-2.48,1.33-.58,2.83-.87,4.49-.87,1.5,0,2.91.24,4.24.72,1.33.48,2.4,1.12,3.22,1.92.56.48.83,1,.83,1.56,0,.43-.16.82-.49,1.16-.33.34-.72.51-1.18.51-.34,0-.62-.1-.83-.29-.63-.63-1.5-1.16-2.61-1.59-1.11-.43-2.17-.65-3.19-.65-1.62,0-2.9.33-3.86,1-.95.66-1.43,1.54-1.43,2.63,0,1.18.48,2.09,1.43,2.72.95.63,2.37,1.16,4.26,1.59,1.88.41,3.42.89,4.62,1.45,1.2.56,2.12,1.33,2.77,2.32.65.99.98,2.28.98,3.88,0,1.4-.39,2.64-1.18,3.73-.79,1.09-1.85,1.93-3.21,2.54-1.35.6-2.84.91-4.46.91-1.76,0-3.32-.25-4.67-.74Z"/><path class="cls-1" d="M172.2,12.9c.33.34.49.75.49,1.23v8.15c0,.65-.29,1.16-.87,1.52-1.11.72-2.33,1.29-3.66,1.68-1.33.4-2.69.6-4.09.6-2.42,0-4.63-.58-6.65-1.74-2.02-1.16-3.6-2.74-4.76-4.73-1.16-1.99-1.74-4.18-1.74-6.58s.58-4.58,1.74-6.58c1.16-1.99,2.75-3.57,4.76-4.73,2.02-1.16,4.23-1.74,6.65-1.74,1.21,0,2.37.13,3.5.4,1.12.27,2.13.66,3.03,1.2.29.17.51.37.65.62.14.24.22.51.22.8,0,.48-.16.9-.49,1.25-.33.35-.72.53-1.18.53-.36,0-.68-.08-.94-.25-1.57-.72-3.16-1.09-4.78-1.09-1.74,0-3.33.42-4.76,1.27-1.44.85-2.57,2.01-3.41,3.48-.83,1.47-1.25,3.09-1.25,4.85s.42,3.38,1.25,4.84c.83,1.46,1.97,2.62,3.41,3.48,1.44.86,3.03,1.29,4.76,1.29.82,0,1.68-.1,2.59-.29.91-.19,1.68-.45,2.34-.76v-5.76h-4.38c-.48,0-.89-.16-1.23-.49-.34-.33-.51-.73-.51-1.21,0-.51.17-.92.51-1.25.34-.33.75-.49,1.23-.49h6.38c.48,0,.89.17,1.21.51Z"/></g></svg>