<?xml version="1.0" encoding="UTF-8"?><svg id="Layer_2" xmlns="http://www.w3.org/2000/svg" viewBox="0 0 174.03 70.19"><defs><style>.cls-1{fill:#26547c;}</style></defs><g id="Layer_1-2"><path class="cls-1" d="M172.32,34.84H1.71c-.94,0-1.71.76-1.71,1.71s.76,1.71,1.71,1.71h122.03c-2.93,2.55-4.79,6.31-4.79,10.49,0,11.82,9.62,21.44,21.44,21.44,18.55,0,33.64-15.09,33.64-33.64,0-.94-.76-1.71-1.71-1.71ZM140.39,66.78c-9.94,0-18.03-8.09-18.03-18.03,0-5.78,4.71-10.49,10.49-10.49,3.22,0,5.83,2.62,5.83,5.83,0,1.63-1.32,2.95-2.95,2.95-.65,0-1.17-.53-1.17-1.17,0-.94-.76-1.71-1.71-1.71s-1.71.76-1.71,1.71c0,2.53,2.06,4.59,4.59,4.59,3.51,0,6.36-2.86,6.36-6.36,0-2.21-.78-4.24-2.08-5.83h30.55c-.89,15.88-14.09,28.52-30.18,28.52Z"/><path class="cls-1" d="M16.51,22.9c.33.34.49.74.49,1.2,0,.48-.16.88-.49,1.18s-.74.45-1.25.45H2.65c-.48,0-.89-.17-1.23-.51-.34-.34-.51-.75-.51-1.23V2.1c0-.48.17-.89.51-1.23s.75-.51,1.23-.51h12.61c.51,0,.92.16,1.25.47.33.31.49.72.49,1.23s-.16.88-.49,1.18-.74.45-1.25.45H4.5v7.39h9.13c.51,0,.92.16,1.25.47.33.31.49.71.49,1.2,0,.51-.16.91-.49,1.2-.33.29-.74.43-1.25.43H4.5v8.01h10.76c.51,0,.92.17,1.25.51Z"/><path class="cls-1" d="M35.51,24.06c0,.48-.18.9-.54,1.25-.36.35-.76.53-1.2.53-.56,0-1.03-.25-1.41-.76l-4.85-6.12-4.78,6.12c-.17.24-.37.42-.62.54-.24.12-.5.18-.76.18-.41,0-.79-.15-1.14-.45-.35-.3-.53-.66-.53-1.07,0-.44.13-.8.4-1.09l5.43-6.77-5.58-7.03c-.24-.31-.36-.65-.36-1.01,0-.48.18-.89.53-1.23.35-.34.75-.51,1.21-.51.58,0,1.05.24,1.41.72l4.96,6.27,4.67-6.23c.36-.51.82-.76,1.38-.76.46,0,.84.15,1.16.45.31.3.47.66.47,1.07,0,.46-.13.83-.4,1.12l-5.36,6.77,5.51,6.99c.27.29.4.63.4,1.01Z"/><path class="cls-1" d="M54.56,16.61c-.34.3-.74.45-1.2.45h-12.75c.17,1.76.84,3.18,2.01,4.24,1.17,1.06,2.6,1.59,4.29,1.59,1.16,0,2.1-.17,2.83-.51.72-.34,1.36-.77,1.92-1.3.36-.22.71-.33,1.05-.33.41,0,.75.15,1.03.43.28.29.42.63.42,1.01,0,.51-.24.97-.72,1.38-.7.7-1.63,1.29-2.79,1.77-1.16.48-2.34.72-3.55.72-1.96,0-3.68-.41-5.16-1.23-1.49-.82-2.63-1.97-3.44-3.44-.81-1.47-1.21-3.14-1.21-5,0-2.03.42-3.81,1.25-5.34.83-1.53,1.93-2.71,3.3-3.53,1.36-.82,2.83-1.23,4.4-1.23s2.99.4,4.35,1.2c1.35.8,2.44,1.9,3.26,3.3.82,1.4,1.24,2.97,1.27,4.71-.02.43-.21.8-.54,1.11ZM42.72,10.63c-.99.76-1.64,1.94-1.96,3.53h10.69v-.29c-.12-1.28-.69-2.33-1.72-3.15-1.03-.82-2.19-1.23-3.5-1.23s-2.52.38-3.51,1.14Z"/><path class="cls-1" d="M72.06,7.21c1.27.6,1.9,1.38,1.9,2.32,0,.41-.13.78-.4,1.1-.27.33-.6.49-1.01.49-.31,0-.56-.05-.74-.14-.18-.1-.43-.25-.74-.47-.15-.14-.37-.31-.69-.51-.29-.14-.7-.27-1.23-.36-.53-.1-1.01-.14-1.45-.14-1.26,0-2.37.29-3.33.87-.97.58-1.72,1.38-2.25,2.41-.53,1.03-.8,2.17-.8,3.42s.26,2.43.78,3.44c.52,1.01,1.25,1.81,2.19,2.39.94.58,2.02.87,3.22.87s2.27-.19,3.04-.58c.17-.1.4-.25.69-.47.24-.19.45-.34.63-.43.18-.1.4-.15.67-.15.48,0,.86.15,1.14.45.28.3.42.69.42,1.18,0,.51-.32,1.01-.96,1.5-.64.5-1.5.9-2.57,1.21-1.07.31-2.23.47-3.46.47-1.84,0-3.45-.43-4.85-1.29-1.4-.86-2.48-2.04-3.24-3.55-.76-1.51-1.14-3.19-1.14-5.05s.4-3.54,1.2-5.05c.8-1.51,1.91-2.69,3.33-3.55,1.42-.86,3.05-1.29,4.89-1.29s3.5.3,4.76.91Z"/><path class="cls-1" d="M92.51,7.25c.33.34.49.75.49,1.23v9.64c0,2.51-.69,4.46-2.08,5.85-1.39,1.39-3.35,2.08-5.89,2.08s-4.46-.69-5.83-2.08c-1.38-1.39-2.07-3.34-2.07-5.85v-9.64c0-.48.16-.89.49-1.23.33-.34.73-.51,1.21-.51.51,0,.92.17,1.25.51.33.34.49.75.49,1.23v9.64c0,3.16,1.49,4.75,4.46,4.75,1.47,0,2.6-.4,3.37-1.2.77-.8,1.16-1.98,1.16-3.55v-9.64c0-.48.16-.89.49-1.23.33-.34.73-.51,1.21-.51.51,0,.92.17,1.25.51Z"/><path class="cls-1" d="M103.06,10.11v10.8c0,1.21.54,1.81,1.63,1.81.17,0,.4-.04.69-.13.29-.08.52-.13.69-.13.31,0,.58.13.8.4.22.27.33.6.33,1.01,0,.51-.29.94-.87,1.3s-1.23.54-1.96.54c-.8,0-1.53-.08-2.19-.25-.66-.17-1.26-.6-1.77-1.29-.52-.69-.78-1.73-.78-3.13v-10.94h-2.1c-.46,0-.84-.15-1.14-.45-.3-.3-.45-.68-.45-1.14s.15-.83.45-1.12c.3-.29.68-.43,1.14-.43h2.1v-3.04c0-.48.16-.89.49-1.23.33-.34.74-.51,1.25-.51s.89.17,1.21.51c.33.34.49.75.49,1.23v3.04h3.01c.46,0,.84.15,1.14.45.3.3.45.68.45,1.14s-.15.83-.45,1.12c-.3.29-.68.43-1.14.43h-3.01Z"/><path class="cls-1" d="M126.86,22.9c.33.34.49.74.49,1.2,0,.48-.16.88-.49,1.18s-.74.45-1.25.45h-12.61c-.48,0-.89-.17-1.23-.51-.34-.34-.51-.75-.51-1.23V2.1c0-.48.17-.89.51-1.23s.75-.51,1.23-.51h12.61c.51,0,.92.16,1.25.47.33.31.49.72.49,1.23s-.16.88-.49,1.18-.74.45-1.25.45h-10.76v7.39h9.13c.51,0,.92.16,1.25.47.33.31.49.71.49,1.2,0,.51-.16.91-.49,1.2-.33.29-.74.43-1.25.43h-9.13v8.01h10.76c.51,0,.92.17,1.25.51Z"/><path class="cls-1" d="M134.63,25.34c-1.35-.49-2.64-1.3-3.88-2.41-.51-.43-.76-.93-.76-1.49,0-.43.17-.83.51-1.18.34-.35.74-.53,1.2-.53.41,0,.76.13,1.05.4.97.89,1.96,1.55,2.99,1.97,1.03.42,2.19.63,3.5.63,1.52,0,2.81-.35,3.86-1.05,1.05-.7,1.58-1.58,1.58-2.64-.02-1.26-.55-2.23-1.58-2.92-1.03-.69-2.59-1.26-4.69-1.72-2.49-.51-4.4-1.34-5.74-2.5s-2.01-2.77-2.01-4.82c0-1.42.37-2.67,1.12-3.75.75-1.07,1.79-1.9,3.12-2.48,1.33-.58,2.83-.87,4.49-.87,1.5,0,2.91.24,4.24.72,1.33.48,2.4,1.12,3.22,1.92.56.48.83,1,.83,1.56,0,.43-.16.82-.49,1.16-.33.34-.72.51-1.18.51-.34,0-.62-.1-.83-.29-.63-.63-1.5-1.16-2.61-1.59-1.11-.43-2.17-.65-3.19-.65-1.62,0-2.9.33-3.86,1-.95.66-1.43,1.54-1.43,2.63,0,1.18.48,2.09,1.43,2.72.95.63,2.37,1.16,4.26,1.59,1.88.41,3.42.89,4.62,1.45,1.2.56,2.12,1.33,2.77,2.32.65.99.98,2.28.98,3.88,0,1.4-.39,2.64-1.18,3.73-.79,1.09-1.85,1.93-3.21,2.54-1.35.6-2.84.91-4.46.91-1.76,0-3.32-.25-4.67-.74Z"/><path class="cls-1" d="M172.2,12.9c.33.34.49.75.49,1.23v8.15c0,.65-.29,1.16-.87,1.52-1.11.72-2.33,1.29-3.66,1.68-1.33.4-2.69.6-4.09.6-2.42,0-4.63-.58-6.65-1.74-2.02-1.16-3.6-2.74-4.76-4.73-1.16-1.99-1.74-4.18-1.74-6.58s.58-4.58,1.74-6.58c1.16-1.99,2.75-3.57,4.76-4.73,2.02-1.16,4.23-1.74,6.65-1.74,1.21,0,2.37.13,3.5.4,1.12.27,2.13.66,3.03,1.2.29.17.51.37.65.62.14.24.22.51.22.8,0,.48-.16.9-.49,1.25-.33.35-.72.53-1.18.53-.36,0-.68-.08-.94-.25-1.57-.72-3.16-1.09-4.78-1.09-1.74,0-3.33.42-4.76,1.27-1.44.85-2.57,2.01-3.41,3.48-.83,1.47-1.25,3.09-1.25,4.85s.42,3.38,1.25,4.84c.83,1.46,1.97,2.62,3.41,3.48,1.44.86,3.03,1.29,4.76,1.29.82,0,1.68-.1,2.59-.29.91-.19,1.68-.45,2.34-.76v-5.76h-4.38c-.48,0-.89-.16-1.23-.49-.34-.33-.51-.73-.51-1.21,0-.51.17-.92.51-1.25.34-.33.75-.49,1.23-.49h6.38c.48,0,.89.17,1.21.51Z"/></g></svg>