<?xml version="1.0" encoding="UTF-8"?><svg id="Layer_2" xmlns="http://www.w3.org/2000/svg" viewBox="0 0 54.65 109.51"><defs><style>.cls-1{fill:#26547c;}</style></defs><g id="Layer_1-2"><path class="cls-1" d="M53.48,27.37h-16.26c3.91-1.75,6.65-5.68,6.65-10.23C43.86,7.69,36.17,0,26.72,0,11.99,0,0,11.99,0,26.72v54.41c0,.65.52,1.17,1.17,1.17h15.92c-3.72,1.83-6.3,5.65-6.3,10.07,0,9.45,7.69,17.14,17.14,17.14,14.74,0,26.72-11.99,26.72-26.72V28.54c0-.65-.52-1.17-1.17-1.17ZM26.72,3.26c7.65,0,13.88,6.22,13.88,13.88,0,4.38-3.57,7.95-7.95,7.95-2.37,0-4.29-1.93-4.29-4.29,0-1.12.91-2.03,2.03-2.03.35,0,.63.28.63.63,0,.9.73,1.63,1.63,1.63s1.63-.73,1.63-1.63c0-2.15-1.75-3.89-3.89-3.89-2.92,0-5.29,2.37-5.29,5.29s1.55,5.27,3.84,6.57H3.56c-.3,0-.3-.42-.3-.65C3.26,13.79,13.79,3.26,26.72,3.26ZM27.92,106.25c-7.65,0-13.88-6.22-13.88-13.88,0-4.38,3.57-7.95,7.95-7.95,2.37,0,4.29,1.93,4.29,4.29,0,1.12-.91,2.03-2.03,2.03-.35,0-.63-.28-.63-.63,0-.9-.73-1.63-1.63-1.63s-1.63.73-1.63,1.63c0,2.15,1.75,3.89,3.89,3.89,2.92,0,5.29-2.37,5.29-5.29,0-2.7-1.43-5.07-3.57-6.4h24.92c.48,0,.48.31.48.48,0,12.94-10.52,23.46-23.46,23.46ZM51.42,78.52c0,.26-.21.47-.47.47H3.42c-.26,0-.47-.21-.47-.47V30.99c0-.26.21-.47.47-.47h47.53c.26,0,.47.21.47.47v47.53Z"/><path class="cls-1" d="M17.03,56.35c.39,0,.71-.11.95-.34.25-.22.37-.52.37-.88s-.13-.68-.38-.92c-.25-.24-.57-.36-.94-.36h-7.26c-.38,0-.69.13-.94.38-.25.25-.38.57-.38.94v12.52c0,.38.13.69.38.94.25.25.57.38.94.38h7.26c.38,0,.69-.12.94-.35.25-.23.38-.53.38-.89,0-.33-.13-.62-.38-.88-.25-.25-.57-.38-.94-.38h-5.87v-4.01h4.9c.39,0,.71-.11.95-.34.25-.22.37-.52.37-.88s-.13-.68-.38-.92c-.25-.24-.57-.36-.94-.36h-4.9v-3.68h5.87Z"/><path class="cls-1" d="M29.04,61c-.74-.34-1.74-.62-2.98-.83-1.1-.2-1.9-.46-2.42-.78-.51-.32-.77-.79-.77-1.41,0-.55.25-.99.75-1.33.5-.34,1.2-.51,2.11-.51.53,0,1.14.13,1.81.38.67.25,1.19.53,1.57.83.17.13.37.19.59.19.33,0,.62-.13.87-.38.25-.25.37-.55.37-.88,0-.43-.21-.82-.63-1.15-.53-.45-1.2-.81-2-1.08-.8-.27-1.66-.41-2.57-.41-1.01,0-1.93.18-2.75.53-.82.35-1.47.87-1.95,1.54-.48.67-.71,1.46-.71,2.37,0,2.48,1.58,3.96,4.74,4.42,1.26.19,2.17.47,2.75.83.58.37.87.88.87,1.53,0,.53-.29.98-.88,1.34-.58.36-1.28.54-2.09.54-.75,0-1.4-.11-1.95-.32-.55-.22-1.11-.56-1.69-1.04-.22-.17-.46-.26-.74-.26-.35,0-.64.13-.89.38-.25.25-.37.55-.37.88,0,.42.19.8.59,1.15.71.62,1.47,1.06,2.27,1.32.81.26,1.73.39,2.77.39.98,0,1.9-.18,2.75-.55.85-.37,1.53-.9,2.05-1.58.51-.69.77-1.48.77-2.39,0-.97-.19-1.74-.56-2.33-.38-.58-.94-1.05-1.68-1.39Z"/><path class="cls-1" d="M44.89,60.83h-3.55c-.38,0-.69.12-.94.37-.25.25-.38.56-.38.93s.13.69.38.93c.25.25.57.37.94.37h2.04v2.82c-.35.12-.75.21-1.21.28-.46.07-.9.11-1.3.11-.92,0-1.78-.23-2.56-.7-.78-.47-1.4-1.1-1.85-1.9-.45-.79-.68-1.66-.68-2.6s.23-1.8.68-2.6c.45-.79,1.07-1.43,1.85-1.9.78-.47,1.63-.7,2.56-.7.84,0,1.65.17,2.43.5.26.12.5.17.72.17.35,0,.64-.13.88-.4.24-.27.36-.58.36-.94,0-.22-.05-.42-.16-.61-.11-.19-.27-.34-.49-.46-1.05-.58-2.3-.87-3.73-.87s-2.75.35-3.96,1.05c-1.21.7-2.17,1.65-2.88,2.84-.71,1.19-1.06,2.5-1.06,3.91s.35,2.72,1.06,3.91c.71,1.19,1.67,2.14,2.88,2.84,1.21.7,2.53,1.05,3.96,1.05,1.69,0,3.24-.44,4.66-1.32.45-.27.67-.66.67-1.17v-4.59c0-.38-.12-.69-.37-.94-.25-.25-.56-.38-.93-.38Z"/><path class="cls-1" d="M9.26,49.1h4.39c.18,0,.32-.05.43-.16.11-.11.17-.24.17-.41s-.06-.3-.17-.42c-.11-.12-.26-.18-.43-.18h-3.74v-2.79h3.18c.18,0,.32-.05.43-.15.11-.1.17-.24.17-.42s-.06-.31-.17-.42c-.11-.11-.26-.16-.43-.16h-3.18v-2.57h3.74c.18,0,.32-.05.43-.16.11-.11.17-.24.17-.41,0-.18-.06-.32-.17-.43-.11-.11-.26-.16-.43-.16h-4.39c-.17,0-.31.06-.43.18-.12.12-.18.26-.18.43v7.61c0,.17.06.31.18.43.12.12.26.18.43.18Z"/><path class="cls-1" d="M20.54,48.95c.13-.12.19-.27.19-.43,0-.13-.05-.25-.14-.35l-1.92-2.43,1.87-2.36c.09-.1.14-.23.14-.39,0-.14-.05-.27-.16-.37-.11-.11-.24-.16-.4-.16-.19,0-.35.09-.48.26l-1.63,2.17-1.73-2.18c-.13-.17-.29-.25-.49-.25-.16,0-.3.06-.42.18-.12.12-.18.26-.18.43,0,.13.04.24.13.35l1.94,2.45-1.89,2.36c-.09.1-.14.23-.14.38,0,.14.06.27.18.37.12.11.25.16.4.16.09,0,.18-.02.26-.06.08-.04.16-.11.21-.19l1.66-2.13,1.69,2.13c.13.18.3.26.49.26.15,0,.29-.06.42-.18Z"/><path class="cls-1" d="M23.01,48.79c.52.29,1.12.43,1.8.43.42,0,.83-.08,1.24-.25.4-.17.73-.37.97-.62.17-.14.25-.3.25-.48,0-.13-.05-.25-.14-.35-.1-.1-.22-.15-.36-.15-.12,0-.24.04-.37.11-.19.19-.42.34-.67.45-.25.12-.58.18-.98.18-.59,0-1.09-.18-1.49-.55-.41-.37-.64-.86-.7-1.48h4.44c.16,0,.3-.05.42-.16.12-.11.18-.23.19-.38,0-.61-.16-1.15-.44-1.64-.29-.49-.66-.87-1.13-1.15-.47-.28-.98-.42-1.51-.42s-1.06.14-1.53.43c-.47.29-.86.7-1.15,1.23-.29.53-.43,1.15-.43,1.86,0,.65.14,1.23.42,1.74.28.51.68.91,1.2,1.2ZM23.28,43.85c.34-.26.75-.4,1.22-.4s.86.14,1.22.43c.36.29.56.65.6,1.1v.1h-3.72c.11-.55.34-.96.68-1.23Z"/><path class="cls-1" d="M33.9,48.64c.22-.17.33-.35.33-.52s-.05-.3-.14-.41c-.1-.11-.23-.16-.4-.16-.09,0-.17.02-.23.05-.06.03-.14.08-.22.15-.1.08-.18.13-.24.16-.27.13-.62.2-1.06.2s-.79-.1-1.12-.3c-.33-.2-.58-.48-.76-.83-.18-.35-.27-.75-.27-1.2s.09-.83.28-1.19c.18-.36.45-.64.78-.84.34-.2.72-.3,1.16-.3.15,0,.32.02.5.05.18.03.33.08.43.13.11.07.19.13.24.18.11.08.2.13.26.16.06.03.15.05.26.05.14,0,.26-.06.35-.17.09-.11.14-.24.14-.38,0-.33-.22-.6-.66-.81-.44-.21-.99-.32-1.66-.32s-1.21.15-1.7.45c-.5.3-.88.71-1.16,1.24-.28.53-.42,1.11-.42,1.76s.13,1.23.4,1.76c.26.53.64.94,1.13,1.24.49.3,1.05.45,1.69.45.43,0,.83-.05,1.2-.16.37-.11.67-.25.9-.42Z"/><path class="cls-1" d="M38.08,49.21c.88,0,1.57-.24,2.05-.72.48-.48.72-1.16.72-2.04v-3.35c0-.17-.06-.31-.17-.43-.11-.12-.26-.18-.43-.18s-.31.06-.42.18c-.11.12-.17.26-.17.43v3.35c0,.55-.13.96-.4,1.24-.27.28-.66.42-1.17.42-1.03,0-1.55-.55-1.55-1.65v-3.35c0-.17-.06-.31-.17-.43-.11-.12-.26-.18-.43-.18s-.31.06-.42.18c-.11.12-.17.26-.17.43v3.35c0,.87.24,1.55.72,2.04.48.48,1.16.72,2.03.72Z"/><path class="cls-1" d="M42.47,43.66h.73v3.81c0,.49.09.85.27,1.09.18.24.39.39.62.45.23.06.49.09.76.09.25,0,.48-.06.68-.19.2-.13.3-.28.3-.45,0-.14-.04-.26-.11-.35-.08-.09-.17-.14-.28-.14-.06,0-.14.01-.24.04-.1.03-.18.04-.24.04-.38,0-.57-.21-.57-.63v-3.76h1.05c.16,0,.29-.05.4-.15.1-.1.16-.23.16-.39s-.05-.29-.16-.4c-.11-.11-.24-.16-.4-.16h-1.05v-1.06c0-.17-.06-.31-.17-.43-.11-.12-.25-.18-.42-.18-.18,0-.32.06-.43.18-.11.12-.17.26-.17.43v1.06h-.73c-.16,0-.29.05-.4.15-.11.1-.16.23-.16.39s.05.29.16.4c.11.11.24.16.4.16Z"/></g></svg>