<?xml version="1.0" encoding="UTF-8"?><svg id="Layer_2" xmlns="http://www.w3.org/2000/svg" viewBox="0 0 165.63 109.51"><defs><style>.cls-1{fill:#26547c;}</style></defs><g id="Layer_1-2"><path class="cls-1" d="M74.32,34.73v3.33h3.87v1.07h-3.87v3.43h4.33v1.07h-5.71v-9.98h5.71v1.07h-4.33Z"/><path class="cls-1" d="M92.31,36.04c.51.25.91.63,1.2,1.14.29.51.44,1.12.44,1.85v4.62h-1.37v-4.43c0-.78-.21-1.38-.62-1.8-.41-.41-.97-.62-1.67-.62s-1.29.22-1.72.65c-.43.43-.64,1.06-.64,1.88v4.32h-1.37v-4.43c0-.78-.21-1.38-.62-1.8-.41-.41-.97-.62-1.67-.62s-1.29.22-1.72.65c-.43.43-.64,1.06-.64,1.88v4.32h-1.39v-7.84h1.39v1.13c.27-.41.64-.72,1.1-.94.46-.22.97-.33,1.53-.33.7,0,1.32.15,1.86.44.54.3.94.73,1.2,1.3.23-.55.62-.98,1.16-1.29.54-.31,1.14-.46,1.8-.46s1.23.13,1.74.38Z"/><path class="cls-1" d="M98.91,36.12c.54-.3,1.18-.45,1.9-.45s1.41.17,2.02.5c.6.33,1.08.8,1.42,1.41.34.61.52,1.31.52,2.11s-.17,1.5-.52,2.12c-.35.62-.82,1.1-1.42,1.44-.6.34-1.28.52-2.02.52s-1.34-.15-1.88-.45-.96-.67-1.24-1.12v5.16h-1.39v-11.56h1.39v1.44c.27-.45.68-.82,1.23-1.12ZM102.97,38.15c-.25-.44-.6-.77-1.03-1-.43-.23-.91-.34-1.42-.34s-.98.12-1.41.35c-.43.23-.78.57-1.04,1.02s-.39.96-.39,1.54.13,1.11.39,1.55c.26.44.6.78,1.04,1.02.43.23.9.35,1.41.35s.99-.12,1.42-.35c.43-.23.77-.57,1.03-1.02.25-.44.38-.97.38-1.57s-.13-1.11-.38-1.54Z"/><path class="cls-1" d="M108.24,43.27c-.63-.33-1.13-.81-1.49-1.42-.36-.62-.54-1.33-.54-2.14s.18-1.51.56-2.12c.37-.62.88-1.09,1.52-1.42s1.36-.49,2.15-.49,1.51.16,2.15.49,1.14.8,1.51,1.41c.37.61.56,1.32.56,2.13s-.19,1.52-.57,2.14c-.38.61-.9,1.09-1.55,1.42-.65.33-1.37.5-2.16.5s-1.49-.17-2.12-.5ZM111.77,42.29c.44-.22.79-.55,1.06-.99.27-.44.4-.97.4-1.6s-.13-1.16-.4-1.6c-.26-.44-.61-.77-1.04-.98-.43-.21-.89-.32-1.39-.32s-.97.11-1.39.32c-.42.21-.76.54-1.01.98-.25.44-.38.97-.38,1.6s.12,1.18.37,1.62c.25.44.58.77,1,.98.42.21.87.32,1.37.32s.96-.11,1.4-.33Z"/><path class="cls-1" d="M127.52,35.8l-2.6,7.84h-1.43l-2.01-6.22-2.01,6.22h-1.43l-2.62-7.84h1.42l1.92,6.58,2.07-6.58h1.42l2.03,6.59,1.89-6.59h1.37Z"/><path class="cls-1" d="M136.39,40.21h-6.67c.05.77.33,1.38.85,1.81.51.43,1.13.65,1.87.65.6,0,1.1-.13,1.5-.39.4-.26.68-.61.85-1.05h1.49c-.22.75-.67,1.37-1.34,1.84-.67.47-1.5.71-2.5.71-.79,0-1.5-.17-2.12-.5-.62-.33-1.11-.81-1.47-1.42-.36-.62-.53-1.33-.53-2.14s.17-1.52.52-2.13c.34-.61.83-1.08,1.45-1.41.62-.33,1.34-.49,2.16-.49s1.49.16,2.1.49,1.08.77,1.41,1.34c.33.57.5,1.21.5,1.92,0,.25-.02.51-.05.79ZM134.65,37.87c-.23-.36-.55-.63-.95-.82s-.84-.28-1.33-.28c-.7,0-1.3.21-1.79.63s-.77,1-.84,1.75h5.27c0-.5-.12-.92-.35-1.28Z"/><path class="cls-1" d="M140.79,36.03c.45-.25,1-.37,1.65-.37v1.34h-.37c-1.55,0-2.33.79-2.33,2.37v4.26h-1.39v-7.84h1.39v1.27c.24-.45.59-.8,1.04-1.04Z"/><path class="cls-1" d="M144.08,34.27c-.18-.17-.27-.38-.27-.63s.09-.46.27-.63c.18-.17.41-.26.67-.26s.47.09.65.26c.18.17.27.38.27.63s-.09.46-.27.63c-.18.17-.39.26-.65.26s-.49-.09-.67-.26ZM145.42,35.8v7.84h-1.39v-7.84h1.39Z"/><path class="cls-1" d="M154.39,36.52c.63.58.94,1.41.94,2.5v4.62h-1.37v-4.43c0-.78-.21-1.38-.62-1.8-.42-.41-.98-.62-1.71-.62s-1.31.21-1.74.64-.65,1.05-.65,1.87v4.33h-1.39v-7.84h1.39v1.12c.27-.4.65-.71,1.12-.93.47-.22.99-.33,1.56-.33,1.01,0,1.84.29,2.47.87Z"/><path class="cls-1" d="M163.01,36.11c.54.3.95.67,1.21,1.12v-1.43h1.4v8.01c0,.71-.16,1.35-.49,1.91-.33.56-.79.99-1.39,1.31-.6.31-1.31.47-2.11.47-1.1,0-2.01-.24-2.74-.73-.73-.49-1.16-1.15-1.29-1.99h1.37c.15.48.47.86.94,1.15.48.29,1.05.44,1.72.44.76,0,1.38-.22,1.87-.67s.72-1.08.72-1.89v-1.65c-.27.46-.68.84-1.22,1.14s-1.17.46-1.89.46-1.41-.17-2.02-.52c-.6-.34-1.08-.82-1.42-1.44-.35-.62-.52-1.33-.52-2.12s.17-1.5.52-2.11c.34-.61.82-1.08,1.42-1.41.6-.33,1.28-.5,2.02-.5s1.35.15,1.9.44ZM163.84,38.16c-.25-.44-.6-.77-1.03-1.01-.43-.23-.91-.35-1.42-.35s-.99.11-1.42.34c-.43.23-.77.56-1.02,1-.25.44-.38.95-.38,1.54s.13,1.12.38,1.57c.25.44.59.78,1.02,1.02.43.23.9.35,1.42.35s.99-.12,1.42-.35c.43-.23.77-.57,1.03-1.02.25-.44.38-.96.38-1.55s-.13-1.11-.38-1.54Z"/><path class="cls-1" d="M74.42,59.43c-.55-.23-.99-.56-1.3-.97-.31-.42-.48-.89-.49-1.44h1.48c.05.47.26.86.62,1.18s.89.48,1.58.48,1.18-.16,1.56-.46c.38-.31.57-.71.57-1.19,0-.38-.11-.69-.33-.93-.22-.24-.5-.42-.84-.54s-.79-.26-1.36-.4c-.7-.17-1.26-.34-1.68-.52-.42-.17-.78-.44-1.08-.81-.3-.37-.45-.86-.45-1.48,0-.54.15-1.02.44-1.44.29-.42.71-.74,1.24-.97.53-.23,1.14-.34,1.83-.34,1,0,1.81.23,2.44.7s.99,1.09,1.07,1.86h-1.52c-.05-.38-.26-.72-.64-1.01-.38-.29-.87-.44-1.49-.44-.58,0-1.05.14-1.42.42-.37.28-.55.67-.55,1.18,0,.36.11.66.33.89.22.23.49.4.81.52.32.12.77.25,1.35.41.7.18,1.26.36,1.69.54.43.18.79.45,1.1.82.3.37.46.87.46,1.5,0,.49-.14.94-.41,1.37-.27.43-.68.78-1.22,1.04-.54.27-1.17.4-1.9.4s-1.33-.12-1.88-.35Z"/><path class="cls-1" d="M83.67,52.91v4.62c0,.38.09.65.26.81.17.16.47.24.9.24h1.02v1.1h-1.25c-.77,0-1.35-.17-1.74-.5-.39-.33-.58-.88-.58-1.64v-4.62h-1.08v-1.07h1.08v-1.97h1.39v1.97h2.18v1.07h-2.18Z"/><path class="cls-1" d="M89.91,52.07c.45-.25,1-.37,1.65-.37v1.34h-.37c-1.55,0-2.33.79-2.33,2.37v4.26h-1.39v-7.84h1.39v1.27c.24-.45.59-.8,1.04-1.04Z"/><path class="cls-1" d="M93.04,53.62c.34-.61.82-1.08,1.42-1.41.6-.33,1.28-.5,2.02-.5s1.37.15,1.9.44c.54.3.94.67,1.2,1.12v-1.43h1.4v7.84h-1.4v-1.46c-.27.46-.68.84-1.23,1.14-.54.3-1.17.45-1.9.45s-1.41-.17-2.01-.51c-.6-.34-1.07-.83-1.42-1.45-.35-.62-.52-1.33-.52-2.12s.17-1.5.52-2.11ZM99.21,54.2c-.25-.44-.6-.77-1.03-1.01-.43-.23-.91-.35-1.42-.35s-.99.11-1.42.34c-.43.23-.77.56-1.02,1-.25.44-.38.95-.38,1.54s.13,1.12.38,1.57.59.78,1.02,1.02c.43.23.9.35,1.42.35s.99-.12,1.42-.35c.43-.23.77-.57,1.03-1.02s.38-.96.38-1.55-.13-1.11-.38-1.54Z"/><path class="cls-1" d="M105.08,52.91v4.62c0,.38.09.65.26.81.17.16.47.24.9.24h1.02v1.1h-1.25c-.77,0-1.35-.17-1.74-.5-.39-.33-.58-.88-.58-1.64v-4.62h-1.08v-1.07h1.08v-1.97h1.39v1.97h2.18v1.07h-2.18Z"/><path class="cls-1" d="M116.29,56.25h-6.67c.05.77.33,1.38.85,1.81.51.43,1.13.65,1.87.65.6,0,1.1-.13,1.5-.39.4-.26.68-.61.85-1.05h1.49c-.22.75-.67,1.37-1.34,1.84-.67.47-1.5.71-2.5.71-.79,0-1.5-.17-2.12-.5-.62-.33-1.11-.81-1.47-1.42s-.53-1.33-.53-2.14.17-1.52.52-2.13c.34-.61.83-1.08,1.45-1.41.62-.33,1.34-.49,2.16-.49s1.49.16,2.1.49,1.08.77,1.41,1.34c.33.57.5,1.21.5,1.92,0,.25-.02.51-.05.79ZM114.56,53.91c-.23-.36-.55-.63-.95-.82s-.84-.28-1.33-.28c-.7,0-1.3.21-1.79.63s-.77,1-.84,1.75h5.27c0-.5-.12-.92-.35-1.28Z"/><path class="cls-1" d="M123.64,52.16c.54.3.95.67,1.21,1.12v-1.43h1.4v8.01c0,.71-.16,1.35-.49,1.91-.33.56-.79.99-1.39,1.31-.6.32-1.31.47-2.11.47-1.1,0-2.01-.24-2.74-.73-.73-.49-1.16-1.15-1.29-1.99h1.37c.15.48.47.86.94,1.15.48.29,1.05.44,1.72.44.76,0,1.38-.22,1.87-.67s.72-1.08.72-1.89v-1.65c-.27.46-.68.84-1.22,1.14-.54.31-1.17.46-1.89.46s-1.41-.17-2.02-.51c-.6-.34-1.08-.83-1.42-1.45-.35-.62-.52-1.33-.52-2.12s.17-1.5.52-2.11c.34-.61.82-1.08,1.42-1.41.6-.33,1.28-.5,2.02-.5s1.35.15,1.9.44ZM124.47,54.2c-.25-.44-.6-.77-1.03-1.01-.43-.23-.91-.35-1.42-.35s-.99.11-1.42.34c-.43.23-.77.56-1.02,1-.25.44-.38.95-.38,1.54s.13,1.12.38,1.57.59.78,1.02,1.02c.43.23.9.35,1.42.35s.99-.12,1.42-.35c.43-.23.77-.57,1.03-1.02s.38-.96.38-1.55-.13-1.11-.38-1.54Z"/><path class="cls-1" d="M128.71,50.31c-.18-.17-.27-.38-.27-.63s.09-.46.27-.63c.18-.17.41-.26.67-.26s.47.09.65.26c.18.17.27.38.27.63s-.09.46-.27.63c-.18.17-.39.26-.65.26s-.49-.09-.67-.26ZM130.05,51.84v7.84h-1.39v-7.84h1.39Z"/><path class="cls-1" d="M132.48,53.62c.34-.61.82-1.08,1.44-1.41.61-.33,1.32-.5,2.11-.5,1.03,0,1.87.23,2.54.7s1.1,1.12,1.32,1.94h-1.49c-.14-.48-.42-.85-.83-1.13-.41-.28-.92-.41-1.53-.41-.79,0-1.43.26-1.92.77s-.73,1.23-.73,2.17.24,1.67.73,2.19,1.13.77,1.92.77c.61,0,1.12-.13,1.52-.4s.69-.65.84-1.14h1.49c-.22.8-.67,1.44-1.34,1.92s-1.51.72-2.51.72c-.79,0-1.5-.17-2.11-.5-.62-.33-1.09-.81-1.44-1.42-.35-.61-.52-1.33-.52-2.15s.17-1.52.52-2.12Z"/><path class="cls-1" d="M80.98,68.64c-.29-.58-.72-1.03-1.28-1.35-.56-.32-1.21-.48-1.95-.48s-1.41.16-2,.48c-.59.32-1.06.78-1.4,1.37-.34.6-.51,1.29-.51,2.07s.17,1.47.51,2.06c.34.59.81,1.05,1.4,1.37s1.26.48,2,.48c1.04,0,1.89-.29,2.56-.87.67-.58,1.06-1.37,1.17-2.36h-4.23v-1.06h5.71v1c-.08.82-.36,1.57-.82,2.25-.47.68-1.08,1.22-1.84,1.62-.76.4-1.61.59-2.54.59-.99,0-1.88-.22-2.7-.65-.81-.43-1.46-1.04-1.93-1.81-.47-.77-.71-1.65-.71-2.62s.24-1.85.71-2.62c.47-.78,1.11-1.38,1.93-1.82.81-.43,1.71-.65,2.7-.65,1.13,0,2.12.26,2.99.79.87.53,1.5,1.26,1.9,2.22h-1.66Z"/><path class="cls-1" d="M87.37,68.11c.45-.25,1-.37,1.65-.37v1.34h-.37c-1.55,0-2.33.79-2.33,2.37v4.26h-1.39v-7.84h1.39v1.27c.24-.45.59-.8,1.04-1.04Z"/><path class="cls-1" d="M91.99,75.35c-.63-.33-1.13-.81-1.49-1.42s-.54-1.33-.54-2.14.18-1.51.56-2.12c.37-.62.88-1.09,1.52-1.42s1.36-.49,2.15-.49,1.51.16,2.15.49,1.14.8,1.51,1.41c.37.61.56,1.32.56,2.13s-.19,1.52-.57,2.14-.9,1.09-1.55,1.42c-.65.33-1.37.5-2.16.5s-1.49-.17-2.12-.5ZM95.51,74.37c.44-.22.79-.55,1.06-.99.27-.44.4-.97.4-1.6s-.13-1.16-.4-1.6c-.26-.44-.61-.77-1.04-.98-.43-.21-.89-.32-1.39-.32s-.97.11-1.39.32c-.42.21-.76.54-1.01.98s-.38.97-.38,1.6.12,1.18.37,1.62.58.77,1,.98c.42.21.87.32,1.37.32s.96-.11,1.4-.33Z"/><path class="cls-1" d="M111.26,67.88l-2.6,7.84h-1.43l-2.01-6.22-2.01,6.22h-1.43l-2.62-7.84h1.42l1.92,6.58,2.07-6.58h1.42l2.03,6.59,1.89-6.59h1.37Z"/><path class="cls-1" d="M114.83,68.95v4.62c0,.38.09.65.26.81.17.16.47.24.9.24h1.02v1.1h-1.25c-.77,0-1.35-.17-1.74-.5-.39-.33-.58-.88-.58-1.64v-4.62h-1.08v-1.07h1.08v-1.97h1.39v1.97h2.18v1.07h-2.18Z"/><path class="cls-1" d="M124.49,68.12c.51.25.91.63,1.2,1.14.29.5.43,1.12.43,1.84v4.62h-1.37v-4.43c0-.78-.21-1.38-.62-1.79s-.98-.62-1.71-.62-1.31.21-1.74.64c-.43.43-.65,1.05-.65,1.87v4.33h-1.39v-10.58h1.39v3.86c.27-.4.65-.71,1.13-.93s1.02-.33,1.62-.33c.63,0,1.2.13,1.71.38Z"/><path class="cls-1" d="M53.48,27.37h-16.26c3.91-1.75,6.65-5.68,6.65-10.23C43.86,7.69,36.17,0,26.72,0,11.99,0,0,11.99,0,26.72v54.41c0,.65.52,1.17,1.17,1.17h15.92c-3.72,1.83-6.3,5.65-6.3,10.07,0,9.45,7.69,17.14,17.14,17.14,14.74,0,26.72-11.99,26.72-26.72V28.54c0-.65-.52-1.17-1.17-1.17ZM26.72,3.26c7.65,0,13.88,6.22,13.88,13.88,0,4.38-3.57,7.95-7.95,7.95-2.37,0-4.29-1.93-4.29-4.29,0-1.12.91-2.03,2.03-2.03.35,0,.63.28.63.63,0,.9.73,1.63,1.63,1.63s1.63-.73,1.63-1.63c0-2.15-1.75-3.89-3.89-3.89-2.92,0-5.29,2.37-5.29,5.29s1.55,5.27,3.84,6.57H3.56c-.3,0-.3-.42-.3-.65C3.26,13.79,13.79,3.26,26.72,3.26ZM27.92,106.25c-7.65,0-13.88-6.22-13.88-13.88,0-4.38,3.57-7.95,7.95-7.95,2.37,0,4.29,1.93,4.29,4.29,0,1.12-.91,2.03-2.03,2.03-.35,0-.63-.28-.63-.63,0-.9-.73-1.63-1.63-1.63s-1.63.73-1.63,1.63c0,2.15,1.75,3.89,3.89,3.89,2.92,0,5.29-2.37,5.29-5.29,0-2.7-1.43-5.07-3.57-6.4h24.92c.48,0,.48.31.48.48,0,12.94-10.52,23.46-23.46,23.46ZM51.42,78.52c0,.26-.21.47-.47.47H3.42c-.26,0-.47-.21-.47-.47V30.99c0-.26.21-.47.47-.47h47.53c.26,0,.47.21.47.47v47.53Z"/><path class="cls-1" d="M17.03,56.35c.39,0,.71-.11.95-.34.25-.22.37-.52.37-.88s-.13-.68-.38-.92c-.25-.24-.57-.36-.94-.36h-7.26c-.38,0-.69.13-.94.38-.25.25-.38.57-.38.94v12.52c0,.38.13.69.38.94.25.25.57.38.94.38h7.26c.38,0,.69-.12.94-.35.25-.23.38-.53.38-.89,0-.33-.13-.62-.38-.88-.25-.25-.57-.38-.94-.38h-5.87v-4.01h4.9c.39,0,.71-.11.95-.34.25-.22.37-.52.37-.88s-.13-.68-.38-.92c-.25-.24-.57-.36-.94-.36h-4.9v-3.68h5.87Z"/><path class="cls-1" d="M29.04,61c-.74-.34-1.74-.62-2.98-.83-1.1-.2-1.9-.46-2.42-.78-.51-.32-.77-.79-.77-1.41,0-.55.25-.99.75-1.33.5-.34,1.2-.51,2.11-.51.53,0,1.14.13,1.81.38.67.25,1.19.53,1.57.83.17.13.37.19.59.19.33,0,.62-.13.87-.38.25-.25.37-.55.37-.88,0-.43-.21-.82-.63-1.15-.53-.45-1.2-.81-2-1.08-.8-.27-1.66-.41-2.57-.41-1.01,0-1.93.18-2.75.53-.82.35-1.47.87-1.95,1.54-.48.67-.71,1.46-.71,2.37,0,2.48,1.58,3.96,4.74,4.42,1.26.19,2.17.47,2.75.83.58.37.87.88.87,1.53,0,.53-.29.98-.88,1.34-.58.36-1.28.54-2.09.54-.75,0-1.4-.11-1.95-.32-.55-.22-1.11-.56-1.69-1.04-.22-.17-.46-.26-.74-.26-.35,0-.64.13-.89.38-.25.25-.37.55-.37.88,0,.42.19.8.59,1.15.71.62,1.47,1.06,2.27,1.32.81.26,1.73.39,2.77.39.98,0,1.9-.18,2.75-.55.85-.37,1.53-.9,2.05-1.58.51-.69.77-1.48.77-2.39,0-.97-.19-1.74-.56-2.33-.38-.58-.94-1.05-1.68-1.39Z"/><path class="cls-1" d="M44.89,60.83h-3.55c-.38,0-.69.12-.94.37-.25.25-.38.56-.38.93s.13.69.38.93c.25.25.57.37.94.37h2.04v2.82c-.35.12-.75.21-1.21.28-.46.07-.9.11-1.3.11-.92,0-1.78-.23-2.56-.7-.78-.47-1.4-1.1-1.85-1.9-.45-.79-.68-1.66-.68-2.6s.23-1.8.68-2.6c.45-.79,1.07-1.43,1.85-1.9.78-.47,1.63-.7,2.56-.7.84,0,1.65.17,2.43.5.26.12.5.17.72.17.35,0,.64-.13.88-.4.24-.27.36-.58.36-.94,0-.22-.05-.42-.16-.61-.11-.19-.27-.34-.49-.46-1.05-.58-2.3-.87-3.73-.87s-2.75.35-3.96,1.05c-1.21.7-2.17,1.65-2.88,2.84-.71,1.19-1.06,2.5-1.06,3.91s.35,2.72,1.06,3.91c.71,1.19,1.67,2.14,2.88,2.84,1.21.7,2.53,1.05,3.96,1.05,1.69,0,3.24-.44,4.66-1.32.45-.27.67-.66.67-1.17v-4.59c0-.38-.12-.69-.37-.94-.25-.25-.56-.38-.93-.38Z"/><path class="cls-1" d="M9.26,49.1h4.39c.18,0,.32-.05.43-.16.11-.11.17-.24.17-.41s-.06-.3-.17-.42c-.11-.12-.26-.18-.43-.18h-3.74v-2.79h3.18c.18,0,.32-.05.43-.15.11-.1.17-.24.17-.42s-.06-.31-.17-.42c-.11-.11-.26-.16-.43-.16h-3.18v-2.57h3.74c.18,0,.32-.05.43-.16.11-.11.17-.24.17-.41,0-.18-.06-.32-.17-.43-.11-.11-.26-.16-.43-.16h-4.39c-.17,0-.31.06-.43.18-.12.12-.18.26-.18.43v7.61c0,.17.06.31.18.43.12.12.26.18.43.18Z"/><path class="cls-1" d="M20.54,48.95c.13-.12.19-.27.19-.43,0-.13-.05-.25-.14-.35l-1.92-2.43,1.87-2.36c.09-.1.14-.23.14-.39,0-.14-.05-.27-.16-.37-.11-.11-.24-.16-.4-.16-.19,0-.35.09-.48.26l-1.63,2.17-1.73-2.18c-.13-.17-.29-.25-.49-.25-.16,0-.3.06-.42.18-.12.12-.18.26-.18.43,0,.13.04.24.13.35l1.94,2.45-1.89,2.36c-.09.1-.14.23-.14.38,0,.14.06.27.18.37.12.11.25.16.4.16.09,0,.18-.02.26-.06.08-.04.16-.11.21-.19l1.66-2.13,1.69,2.13c.13.18.3.26.49.26.15,0,.29-.06.42-.18Z"/><path class="cls-1" d="M23.01,48.79c.52.29,1.12.43,1.8.43.42,0,.83-.08,1.24-.25.4-.17.73-.37.97-.62.17-.14.25-.3.25-.48,0-.13-.05-.25-.14-.35-.1-.1-.22-.15-.36-.15-.12,0-.24.04-.37.11-.19.19-.42.34-.67.45-.25.12-.58.18-.98.18-.59,0-1.09-.18-1.49-.55-.41-.37-.64-.86-.7-1.48h4.44c.16,0,.3-.05.42-.16.12-.11.18-.23.19-.38,0-.61-.16-1.15-.44-1.64-.29-.49-.66-.87-1.13-1.15-.47-.28-.98-.42-1.51-.42s-1.06.14-1.53.43c-.47.29-.86.7-1.15,1.23-.29.53-.43,1.15-.43,1.86,0,.65.14,1.23.42,1.74.28.51.68.91,1.2,1.2ZM23.28,43.85c.34-.26.75-.4,1.22-.4s.86.14,1.22.43c.36.29.56.65.6,1.1v.1h-3.72c.11-.55.34-.96.68-1.23Z"/><path class="cls-1" d="M33.9,48.64c.22-.17.33-.35.33-.52s-.05-.3-.14-.41c-.1-.11-.23-.16-.4-.16-.09,0-.17.02-.23.05-.06.03-.14.08-.22.15-.1.08-.18.13-.24.16-.27.13-.62.2-1.06.2s-.79-.1-1.12-.3c-.33-.2-.58-.48-.76-.83-.18-.35-.27-.75-.27-1.2s.09-.83.28-1.19c.18-.36.45-.64.78-.84.34-.2.72-.3,1.16-.3.15,0,.32.02.5.05.18.03.33.08.43.13.11.07.19.13.24.18.11.08.2.13.26.16.06.03.15.05.26.05.14,0,.26-.06.35-.17.09-.11.14-.24.14-.38,0-.33-.22-.6-.66-.81-.44-.21-.99-.32-1.66-.32s-1.21.15-1.7.45c-.5.3-.88.71-1.16,1.24-.28.53-.42,1.11-.42,1.76s.13,1.23.4,1.76c.26.53.64.94,1.13,1.24.49.3,1.05.45,1.69.45.43,0,.83-.05,1.2-.16.37-.11.67-.25.9-.42Z"/><path class="cls-1" d="M38.08,49.21c.88,0,1.57-.24,2.05-.72.48-.48.72-1.16.72-2.04v-3.35c0-.17-.06-.31-.17-.43-.11-.12-.26-.18-.43-.18s-.31.06-.42.18c-.11.12-.17.26-.17.43v3.35c0,.55-.13.96-.4,1.24-.27.28-.66.42-1.17.42-1.03,0-1.55-.55-1.55-1.65v-3.35c0-.17-.06-.31-.17-.43-.11-.12-.26-.18-.43-.18s-.31.06-.42.18c-.11.12-.17.26-.17.43v3.35c0,.87.24,1.55.72,2.04.48.48,1.16.72,2.03.72Z"/><path class="cls-1" d="M42.47,43.66h.73v3.81c0,.49.09.85.27,1.09.18.24.39.39.62.45.23.06.49.09.76.09.25,0,.48-.06.68-.19.2-.13.3-.28.3-.45,0-.14-.04-.26-.11-.35-.08-.09-.17-.14-.28-.14-.06,0-.14.01-.24.04-.1.03-.18.04-.24.04-.38,0-.57-.21-.57-.63v-3.76h1.05c.16,0,.29-.05.4-.15.1-.1.16-.23.16-.39s-.05-.29-.16-.4c-.11-.11-.24-.16-.4-.16h-1.05v-1.06c0-.17-.06-.31-.17-.43-.11-.12-.25-.18-.42-.18-.18,0-.32.06-.43.18-.11.12-.17.26-.17.43v1.06h-.73c-.16,0-.29.05-.4.15-.11.1-.16.23-.16.39s.05.29.16.4c.11.11.24.16.4.16Z"/></g></svg>